<!DOCTYPE svg PUBLIC "-//W3C//DTD SVG 1.1//EN" "http://www.w3.org/Graphics/SVG/1.1/DTD/svg11.dtd">
<!-- Uploaded to: SVG Repo, www.svgrepo.com, Transformed by: SVG Repo Mixer Tools -->
<svg fill="#535bf2" width="800px" height="800px" viewBox="0 0 32 32" xmlns="http://www.w3.org/2000/svg">
<g id="SVGRepo_bgCarrier" stroke-width="0"/>
<g id="SVGRepo_tracerCarrier" stroke-linecap="round" stroke-linejoin="round"/>
<g id="SVGRepo_iconCarrier"> <path d="M16 0c-8.849 0-16 7.161-16 16.021 0 1.781 0.303 3.473 0.823 5.077h4.771v-13.459l10.407 10.423 10.407-10.423v13.459h4.771c0.516-1.604 0.823-3.296 0.823-5.077 0-8.855-7.151-16.021-16-16.021zM13.615 20.412l-4.552-4.563v8.468h-6.719c2.817 4.6 7.896 7.683 13.656 7.683s10.88-3.083 13.661-7.688h-6.724v-8.463l-4.511 4.557-2.385 2.391-2.416-2.391h-0.011z"/> </g>
</svg>